<mxfile cover="11224;/9j/4AAQSkZJRgABAQAAAQABAAD/4gHYSUNDX1BST0ZJTEUAAQEAAAHIAAAAAAQwAABtbnRyUkdCIFhZWiAH4AABAAEAAAAAAABhY3NwAAAAAAAAAAAAAAAAAAAAAAAAAAAAAAAAAAAAAQAA9tYAAQAAAADTLQAAAAAAAAAAAAAAAAAAAAAAAAAAAAAAAAAAAAAAAAAAAAAAAAAAAAAAAAAAAAAAAAAAAAlkZXNjAAAA8AAAACRyWFlaAAABFAAAABRnWFlaAAABKAAAABRiWFlaAAABPAAAABR3dHB0AAABUAAAABRyVFJDAAABZAAAAChnVFJDAAABZAAAAChiVFJDAAABZAAAAChjcHJ0AAABjAAAADxtbHVjAAAAAAAAAAEAAAAMZW5VUwAAAAgAAAAcAHMAUgBHAEJYWVogAAAAAAAAb6IAADj1AAADkFhZWiAAAAAAAABimQAAt4UAABjaWFlaIAAAAAAAACSgAAAPhAAAts9YWVogAAAAAAAA9tYAAQAAAADTLXBhcmEAAAAAAAQAAAACZmYAAPKnAAANWQAAE9AAAApbAAAAAAAAAABtbHVjAAAAAAAAAAEAAAAMZW5VUwAAACAAAAAcAEcAbwBvAGcAbABlACAASQBuAGMALgAgADIAMAAxADb/2wBDAAMCAgICAgMCAgIDAwMDBAYEBAQEBAgGBgUGCQgKCgkICQkKDA8MCgsOCwkJDRENDg8QEBEQCgwSExIQEw8QEBD/2wBDAQMDAwQDBAgEBAgQCwkLEBAQEBAQEBAQEBAQEBAQEBAQEBAQEBAQEBAQEBAQEBAQEBAQEBAQEBAQEBAQEBAQEBD/wAARCAB1AWMDASIAAhEBAxEB/8QAHQABAAIDAQEBAQAAAAAAAAAAAAUGAwQHAgEICf/EAE8QAAEDAwMCAwQEBwsJCQEAAAECAwQABREGEiEHMRNBURQiYXEVMoGRFiMzQlJikxc0VHKSobGys8HSJCZDVnOCg5WiRFNVdISUwsPT8P/EABQBAQAAAAAAAAAAAAAAAAAAAAD/xAAUEQEAAAAAAAAAAAAAAAAAAAAA/9oADAMBAAIRAxEAPwD+qdKUoFKUoFKUoFKUoFKUoFKUoFKUoFKUoFKVoS7xHYeMOM25LlgZ8BnBKc9isnhA+Z+WaDfr82PL0bMhRIitNx35sdoB9+NNjMqJVuVlwLbUrOTjzPA8q799H3K4e9dpnhNH/ssRRSPkpzhSvs2j4Gt+LEiwmRHhx22W09koSAPnxQfmuLG0SELa/BSUl3cAUuXOOU4wCSF+Dj87HHmO9ewxpeNYbu4zpdoT5FufaYEmcw+GndpUgoCGgQdwCd3cAjg81+l6UFZTqy4xlhm86bdhuE4GJKFIUf1Vq2oPyyD8Kk/p5pAzJttyY+cVTg+9vcKkXG23UKbdQlaFDCkqGQR8RUX9DPW8+JYZAjjziu5VHV8h3b/3eP1TQZEajsSlBCrrHaWeyXl+Gr7lYNb7TzL6d7LqHE+qVAj+atGNdI0tZgz2RFldjHeIO74oPZafiPtAPFfXdPWN5W9dpiBf6aWglX3jBoJClRn0BFR+9Zlwj/xJjigP91ZI/mryI1+hACPOZntpH1ZSfDcP/EQMf9FBK0qL+nUR+LrAlQsd1qR4jX8tGQB/GxW/HkxpbQfiSGnm1dltrCkn7RQZaUpQKUpQKUpQKUpQKUpQKUpQKUpQKUpQKUpQKUpQKUpQKUpQKUpQKUpQKUpQK47aXNTSrQzOLN9nFxoKSpnUqWCs5I+q4r3fXv8AL0rsVQatC6JWoqVo6xlROSTb2ck/yaDns6LqiRCUwbLqFwSErQ6hGsm0KQgoHZQP1iSocEAbc7u1atl09cdMWdiw6d07fI0eGwQ0wNXJCE4OEpCznJI9ewHPlXSXen+hHm1suaLsSkLSUqH0czyD3/NqLj6M0ZaHUW65aSsi2FnbFlLt7Jz6NuHb9b0P53z7hX4D2oYl+0/7Si7RW5U8svJfvyZiVJ8B1W0oT8Ug5/V+IrqdREPSGk7dJRNt+mLTFkNHKHWYTSFpOMcKCcjgmpegUpSgrevVP/Q8VhiXJje03SBHWuO8ppzw1yEJUApJBGQSODVX1zpJq0x2LkjqXfLHGSS0vxrhKeS4s8g58TKcAK8sGuhXK12y8w12+8W6LOiuEFbEllLraiDkZSoEHBANQp6adOSMHQGm/wDlTH+Gg45dNK6XvzsKVcOtl3fcgPJmwHVIl5ju9gtCvE74JSR+tg98GSk/Qanmoq+uN9hvPIKEpDktQKg6ob9ylY7J2nPHn5ir9P6cdO5Fwh2qPoPTiQhQlSCm1sDa2g+6n6v5ywPsSqpP9zXpz/qBpv8A5Ux/hoK9f9Jv6c0fKuB1VqCVcIjYV45uslKVK3DnZ4hGMHtzXRarrfTjp40tLrWg9OoWghSVJtbAII7EHbVioFR8ixWuQ6ZHs3gvnu9HUWnD81JwT8jkVIUoIv2S+RP3pcm5iB2bmI2q/aIH9KSap2mmb7q+8aic1J9M2F6FPTHZhxrtuQGvCSUrBQdvvjC8YBG4g810WoO4aK03c5z1xmQXFSJBSXFIlPICiEhIOEqA7JA7eVBWbhp/Uka5JiwI2pJkQuJSZP4RBsJQcZVtPJxzx8KjkwNb5c8TTOpkYGG/860q3qKu3A90bckk454571b/ANzzSX/h8j/30j/HWtP6Y6XlsgR2pcd5s723EzpBAP6yd+FDyI+7B5oICHZ9YvSPDl2bUcdrxNvifhSlfuZ+sABnOOccVL3Ozu6fudhfiagvTwk3REd1uROW4hSC04rBSfikV7gaN0o+4qFNtbzE1oZW37fIKVp/TQd/Kf5x2NScTQml4UtidHt7gfjL8RpS5bywlWCM4UsjsTQT9KUoFKUoFKUoFKUoFKUoFKUoFKUoFKUoFKUoFKUoFKUoFK8OOtNDLrqED1UoCtR2+2Rj8veILeP0pCB/fQb1KjBqWxK/J3Ft3/ZAuf1QaHUEE/k49xc/i29/H3lGKCTrHIjsS2FxpLSHWnBtWhYyFD0IrQ+mlq/JWS5r/wCElH9ZQry5eJ6ElxWnpTSB3U8+wkD7lmgwKkP2BRaD4mw0YAbLg9pZH2n8Yn5+9/GrLbNX6XvL8qJbL/BkSIJQJTCXk+KwVjKQ4g+8gkcgECua3u72K4auuz9wjaadkIjQENC5oEpsIBkbwlSEq2qyUZHwHzGla1aZbuHtFxsnS9tt5bftC41scLq0hOCclsZPfGew4+JDs/t8H+GMftBT2+D/AAxj9oK4ymTp4zSlbHTZDQTuDQtilLVxjOfDGBn4HjjvzWF2dAcdfbYs3S9lCXB4TjlucWFNknyCAdwGO4AyfOg7aiXFdUENyWlqPYJWCTWtcLs3FWIkVsypqx7kdB5H6yz+Yn4n7MniuLup0dP1JpuLMv1k086l5+Qt7Trpt3jhsNqDLi1JBUhRyCkEZBI4rtltjW2PGBtbbIZc97e0QQv4lX5x+JNB5tdvXCbcckvB6XIV4j7uMAnySPRIHAH95NbtKUClKUClKUClKUHxSkoSVKUAkDJJPAFYfb4P8MY/aCsF6mxIFskPS30tJLakjPdRIOAB3J+ArjcPTfSG8WGzPXO5ot09u3R25KYzDaSp0NjcV7mlZVkqyfPzzgUHYLk3a7k0lK57bTrR3svtupC2leoP9IPBHBqMZ1tZoN4haVv13hMXeel1UJAcAExDYBWpHoUggqSe2fMc1yu8WPpLZLS4m0LVeZL6mm0NreYZWnak4IWtoAZx72Mk5zg1AqtOgWEQyuxqLzoLaiu6RctqVuyRln3iEjjA8zxxmg/SHt8H+GMftBT2+D/DGP2gr882yB00cuSvwihKs0JtKg3JcuEd5KlE8J2JZz2GcqPHx71LtaO6IvHxoOtFOr3FWVJacRgqyRtDQ7DKR9mc4oO5tutPJ3MuoWkHGUqBGa91UumwgfRFwNqbaRCN1lqjpZQEIDZXlO0DGBjHFW2gUpSgUpSgUpSgUpSgUqL1PeF6f09cb22yl5UGOt8NqOAvaM4z5Z9ahJ1/1lbAFXKPpKIFcgvXh5A7gdyx6kD5kUFvrUmXW228gTZzLKlfVSpY3K+Q7mqVctVaplwZcCHd9GQZTjLjbchF8KlsLKcBYSpgglJIOCCPWtHT15venrZEgy7poWVPRFR7VOXei25LWAAp5QDPGVc47DIFBe/p1LhIh2u4yfQiOWgfkXSkV89svzo/E2Vhr/zEvB+5CVf01BwtRavuSy1bmtISlpTvKWb06shPqQGO1Tel7w7f7BCvD8dDDkpsrU2hRUEnJGASBnt6UHrwtSOjmZbo/wAEx1un7ytP9FPo26uD8dqKQn/YMNJ/rJVUnSgjBY0q/L3W5u/+pLf9TbQabtH+kYee/wBtJdc/rKNSdKCORp2wNnciyQAr9L2dGfvxmtxqLGY/IR2m/wCIgD+istVdd91ZMvV1ttjtNpcYtbzbCnJc11pa1KZQ5kJS0oY9/HfyoLRWpPuLUBKAW3HnnSQyw0MrcI74zwAPMkgDzNVR3V+o2HVsyHdFtONrLa0OXxxJChnIwWO/B+41CRrzq5GrJWoXNT6MehSITcWPbzd8IYWhZLrgcDG5W7e2NpOBjzyAkL4I18ne9Kmot7Z/0UUBbmPi4oY+5PyPnXtvT1oSsOvRBKdByHJSi8oH1BWTj7MVXomqdUT5KocL8DZD6TgtNXtxSwcZ7BjPat63XzUqNSxrBf7XbGUzIMmY07DmOOkFlxhBSoLbRjPjg5BP1TQWRKUpASkAAcADyr7SlBGRPxt/uDx7NMx2B8D76z/XT91SdRln96Xd3T+dNwPklltP9INSdB4dabebU082lxCxhSVDII+IqBe0HpkuGRb4KrVIPPjW11UVRPqQ2QlX+8DW9qe8K09pq7X9McPqtkF+YGiraHC22pe3ODjOMZxVbk6x1DDkGJMf0Uw+DtLbt9cQrPPkWc9wR9h9KCSVH1pY/fizWtQxU92JKUR5YH6riQG1n4KSjt9apWy3yBfoy5EIuJUystPsvIKHWHB3QtJ5B5HwIIIJBBqqjW18KtgmaG3AZI+n15A/Y1XmZGtLf1Auer3dW6QTb5duYt67Oq6BDaJDTi1F9Tvs+8q2q2bc4ABzn3QkOt0qko1bqRxtDqHdFKQ7jYoX1zCsjIx+J5yK15uvNQQ4k2UgaQlKgsPSHGI17cW6UtI3LAT4PfHkcdxQX6lYozinozTygApaEqOO2SKq1z6mWS1XCZb3oNwWqC6GXnEpaDYWUBWAVLHkofz+lBbqwzJbECK7MkKIbaSVKwMk/ADzJ7AVTG+runXThqBPWStTeEqjn3gMlP5XuACSPSoa5dVEvarjQpOnZKLJFYEhby5DAfVNK8Nt+Fv+qEnfuKh723APkF/tsB1b30vc05mOj3EE5EZB/MT8f0j5n4AVJ1R1dXNPJCiq33ABOd2VR+Mev42pCw9QrPqC7Is0WJNafcYVISXQ3tKBtOcpWryWkj1BzQSkz/KL7b43dMdD0tXwOA2n+0X91bk6DGuMZcSUjcheDkHBSRyFA+RB5BrUhfj75cpHcMpZij4EJLh/tE/dVcX1ZsCHiz9G3MkKUgHaykK2qUk4y4M8oV9xoLLa5b/iOWuerMqMAQ5jAfbPZwD18iPI/Aiskmy2iYrfKtkVxfcLU0ncPke4rnGtOqqGLS9dNMafflXu2guR2JUlhhtwbtrja171bQQFeX1kjtjImldXtPtBoP2+4NqeGUAmON3rj8bzQWb6CQ1zAuVwi+gS+XE/yXNwA+WKbNRxvqPQpyR5LSphf8obgT9gqBhdUrHOfbZatlzCVvx2C4W2ihtT7gbbKtrhIBUcZx5H0q5UEX9Ohji526ZD9VlvxW/5SM4H8bFb0WZEmtB6HKafbP5zawofeK5zf5Wupci9SrJruLaGoF0EJDUxlkMhHgMr+uWlKzla+59PSqzJtmv35YkzurOlY6ikZfYeYbe355G5LIJGPMnuO3PAdypXD7FE6oWViNZnet9nnR2AkCXLkxnZK2/EO8qPgjcoJyBnzAyo81OQ7Z1hnuAwOqVllsoeSHVMssKUlo9zwyRu4OBwPjQdUpWlZ25TNvQzMnuzXm1OJVIdQhKl4WQMhCUpHGBwPLzPNKDdpSlBHais6dQWKfY1SCwmcwtguBO4oChjOMjNU+7WXUN5kJiJvVsvD8ZX15FkaU1HPnlalHB+CQT64q1yVPXiW9bGXVtRI+EyXUHCnFEZ8JJHbggqI55AHmRJR47ERlEaMyhppsbUoQMAD5UHP4/SqQ022Vz7Al1K/FJZ080hJVz5b+RyeDx8KzyumsyU2oLuGn1r5Ugu6aYWAvOdxG715q+0oOd2yw36wvhl272m0Or/ABaH41jaSy5nHuhYUME7U+6rHYYzirlpyz/g/ZIln9p8f2VBR4mzbu5J7ZOO/rW+600+2pl9pDjaxhSFpBCh6EHvUSnx7DJbaU4p22PqDaCs5VGWThKcnugnAGeQSB2PATNKUoFKUoFVWdYbvb7jdb5A1Yzbo85xEh5DsFLoQUNIb+sVjjCAe3nVqqHgo+m3EXiUMxkq3QmT9XHk8fUnun0BHmTQU1Og7zfpjlwlybKY72FKXL080p2QQVEK2KV7vKicn3j6CpBzpvKeTsdn2Fad6ncK04wRvJBKvrdyQCT8KvVKDnCdK3zTc5U76RskVj82dE0+0hbWRjDgCsgYAG4EjjkAVZLXp26pv0fUV31Ii4mPCfiMIbhpZSEvLZWpWQo5/IJx8zViIBGCMg1EIQbHOaYb4t0xexCf4O8eQB6IVzx5Kxjg8BMUpSgjLFy3NX+lOf8A5lY/uqTqMsH71kH1nSv7ZdSdBH6is6NQ6fudgdeUyi5Q3oanEjJQHEFBUB54zmqnP0LJS85erlfLIXUgKXIesLJIIJIOSrvlR5781e1KCQVKIAAySfKomA0bw6i9SwSwDuhMK7JT5OqHmo9x6AjzzQUu3dP7pKd9oa/B+JEKQElzTTCXnAO3u7vcHmM8/AVKSOntwloU1KulkeQr6yXNOsqB8+QVVd6UHNpOi73bctvybG7bVE5UxpxnLII5K293I9Sn7Rjmsw6aLl255iFebIyxNZdb8WJYGG1bXUFKylSVcEpOMiuh1Cvs/QEn2+LhMB9wCUyOzSlHAdSPLk+8O3O7yOQlmGvAYbZ3bvDQE5xjOBiqPJ07fG7lenU6Osd2auE0ymHpkoJW2PBbRjaWV+bZPfz7VfKUHGG9B9UWlrS1atIIStpSPETGYC0k4zj/ACfGCMg5z3PwIys6F6kqQr6RsukJTgdS6yv2dlIaIAAIHgHJ2pSAc8bRxxXYqUHHJOguoa50dyHYdINQmNpEV1hl3KgSVELLAIyVKPHYn5g3G1WW9HVEC7StM2q0RocWQwoQ5XilxTnhbcjwkYCQ1jz7jtirlWGXITEiPSldmW1OH5AZoNLT/wCMiPy/OTLfc+aQspT/ANKU1UYGn9QQoSbfL0Hp+6BqQ+82/JnAKIW6tY90sKwQF47ntVzscdUWzQY6/rIjthRPmraMn781vUHKrzpLXsqf7XYNLaRtLam9rje1p4uqz725RjglJGAQMdhzXmzaN1tGXnUektI3lsNKbS0UssJSSrORiMTgAkY+JNdXpQUGRYNQTBEiR9EWC0NInQHnn407KgzHkId2hIYTnhKgBkAE1fqUoKUu06kjTb00nStou0G5zzMR7XO8PA8FtvBR4Kx/ozznsqqfP6f9RXzI9gsekIwfdLid8dh0t5yRglgZIUdwJ+45rstKDjI6f9R2nXDDtOlmGVLylBbacUE7s7SpbB49MAY/onNM2LX1oZebvOktLXJxbiHEraeRGAKc4O1Mc8jPBJJHPrgdKpQaVo9vMBCrpFajSlLcU4008XUJytRGFlKc8EeQpW7Sg5GvqBr9dqt9ygag0VIVNgtzHGlMBn2cqSVKSsrmg4TjGQnvngYNYUa+6rpkFmXJ0VGRs3BbhRyT9ROBNzzlPPI94d6sDXRPTTLTTCLlOKGW0tJCosFWUgAAHMc7sADk5NbiuldtWnau/wByUNgbwY0EjaOw/e/bgcfCg5zp+/dXdMSpsJ64adfbuc9+4+PPkIcLfiqCihA9sG1pII2J74HrVjkaz6pxXZSX7hotppgL2OOJSnepJ7Ee2+6MYPP2gVPudJLM654rt5nLX4fhblRIBOzj3c+zduBx8BXxfSGyOuvPPXie45IOXVLiwVFZ475j/AUG/o7UN1ul3utpud3s1y9gYiOpftjCmkhTvi7kKBdcyR4Y5yO/apDWF0udptbLtnXFRKkzokNC5LKnW0B15DZUUJWgqwFE43CsWl9FW3SkmdMhy5D7s9LSXVOtsoGGysjAabQM5cVknJ7Vu6isY1BARC9udhqbkMyUPNJSpaFtLC0kBQKfrJHcEUFXvzvWa3FH0KrT123FAO21rZ25VhRO+b5DnjOe1VTUsfr/AKtsN0049CtdqRLjKQ3NiJ8N5DgGUltQlq2ncO5HzHJAnrh0Uh3R96RO1helrkOl53b4KAtZIJJCUAHkdsYxx2NYH+g9pksNxn9U3hbLSlLQ2fB2hRxk42Y8uPTnHc0B249fo8RkxrPp6S74fvoMYhQOcD3jMwcgZz8amrH+69PYW5eJmnbW4kgJbNpce3ccnKJmAM//AMO1RLHQ63xVeJF1beGnPDU14iUMFW0gg5y2cn3jyc96zWbo21p+excrTrS9MPxmDGbOyOpIQQkHKVNkE4SOcZ4oLfpC7Sr9pe1XmclpMibEbfdDSSlAUpIJ2gkkD5k/OqQeod0cuNxiu6usNsMWZLZbjvWGVIWGmXVICi4mQlKiQAThI5OKv9htDVgssKyMOrdagspYQteNykpGATjzxUOjRLkdyQqBrC+w2pEl6UWWTG2JW64pasbmScblHuTQVK66uuFwtkuArqXY2W5UZxtUiNpualbSVJxvSoSvdUM5B8jivNn1LO0/GhaQPVPT8iTbozEXdK0/KU+7tGwKWfahlZKDu+IPAq5fgjcv9f8AUn3xP/wp+CNy/wBf9SffE/8AwoKqvqHdWZMJDOsLBcVP3CHFcit2CVHcLb0lppRC1yFBJAcJGUnOO1dOqru6HclKYFx1hfpjLEliX4Dqo4QtbLqXUbtrION6EngjtVooOdK6uutQbdcX9IymmLpFbmRiqW0SptxO5OQM4JHl8Kruqurtzvuk5TmkLXGZloVHeakTHPGZRtcS4coQUqJ2oVjB4UOfSp4aF6hI09atPxtVxISLVCbhNvQy80tYQhKQpQyQThPpgZNayenXUtPig9R5Sg6EpAMhz3ACD7pxnnGCSSceYoMsLrfCuCwzEsLjy+chMpGMgEkfPg8VOWLqC7epFrSdPPR4t2edYYkmS2sb0NrWQUj3uzZ5x6VXFdNeo6nW3T1GmDwxykTHtq+/JH2+Xw9BVhtWmNXIm2Nd8u8GWxZnXXfEAcVIdK2XG/eUo4OPE9PKgkFXhvT+mbte3mVOogPzX1IScFQS6skA1VVdboadv+b7p37sbZSD9UgHt6Ej7x61Zplodv8Ape/WJh1LTkx2WwlawcJK1Hk4+de9nUb+E6b/AGD/APjoOe6t60SZ+nrvatOW5iLd1xXG2XJb4W0y4QE5dSnCgMqAz5E+fapBjrjBjQ20SLIre1sYXtfSgFw8YSk5I5B45xU3fNN9R7240sanhW/wkqTtgqfaCs+auTkjyrJZtPdQbN4yheLRNceIJdmJeccSkdkhW4Hb3ODnkmggpHXu2R2ZDxsD6/ZmFyFpRJQVbEJ3Ejj0rqlUzUFl6g6gsNysL87TzTVyiPQ1rQw/uQlxBQSMr7gGrnQc3ufWeFapTzEixOoQiTIjtOLlNp8YsvrYUpI743oPyBBNRWoOsS7npy4xbTYgiVLgvpjLkOhxvdsOFKQnClJBIJAOcVNy9D6xcjuW2Le4DUP6QnTWwkPIWr2h910BeDglBd4+KQajpPTjqRKGw9RJLaACEoakupCe3oMnGPMnv8sBitnWtyLaYTd6s3jTUxWjJeYeCGlrPuqWkHJCdyVdycDGTUnaescO7y4saPYnS3JdYb8VElC0oDriG0q478uJ471oudOepryWAvqPIQY61qQWpDydwPAC8534Hrxk5xmpGBojW7aI8O6amjzorc6LMUX1OuOpDLwc2oJPGcY5z2H2h0KlKUCozUuVWSUyDzISmN+0UEf/ACqTqMvnv/R8b/vpzX/Rlz/66CS7cCvtKUClKUClKUClKUClKUClKUClKUClKUClKUClKUClKUClKUClKUClKUClKUClV3WMm5tKskK13R23quFzEZ15pttawj2d5eAHEqT9ZCfLPFas6y6nhQnpjeu73JLSCsNMwYSlr+CR4PegmbJw5ckfozl/zpSr++pOuVaS0/doV5ujcO961gvXmWu4S3pcKIqOHQ22j3VKQQkEJGEpGM7u1TmqoWqtP6bud7Y1/c3HIMVx9CFw4e1SkpJAOGe2aC80pSgUpSgUpSgUpSgUpUJra5TLPo693a3u+FKh2999le0K2rSgkHB4PI86CbqMn/jL1amf0PHkfcgI/wDsqMTp7USyQnqPdDg4OIkI4P7GqVItN5Vq1jUb9w12Z8Rhy2sPNQIhaWy46gqUpGwJ4LaVBShkDOO9B1ulVoad1GSB+6Ndcny9khZ/sa2NEz51y04xKuUtUmR40lpTqkpSVhD7iEkhICc7UjsBQTtKUoFKUoFKUoFKUoFKUoFKUoFKUoFKUoFKUoFKUoFKUoFKUoFKUoFKUoILVelIerWrfGnqHgwZomKbUkkOkNuICchQI5WFZ/Vx51Dp6SaPT4eLY3hpJS2C/JISCQSB+O45ApSgzP8ATDS8lhqM/b21tMq3NpLsj3ThIyPxv6qfurQufRvSs60S7WxHTHVKaU2Hi5IcUhXcKwp07sEA4PpSlBfqUpQKUpQKUpQKUpQKjdS2f8IdPXKw+0+z/SMR2L4uzf4e9JTu25GcZ7ZFKUEDO6W6UuUpyZLtrKnnVKUtaXJCCoqVuOdro4Kucdq9OdMdMOxjEXAb8IhQ4dkBXIAPvB3IyAPOlKDTa6O6MYcS9GtqGnUcocD8hRSeMY3OkcYGOOPLFWjTtmFgtSLWJHjhDrzu/Zs/KOqcxjJ7bsfZSlBJUpSgUpSgUpSgUpSgUpSg/9k=" host="kod.cuc.edu.cn" modified="2025-06-07T07:02:46.692Z" agent="Mozilla/5.0 (Windows NT 10.0; Win64; x64) AppleWebKit/537.36 (KHTML, like Gecko) Chrome/137.0.0.0 Safari/537.36 Edg/137.0.0.0" etag="9GIlX9RFhR4_Pw3oNquU" version="22.0.8">
  <diagram name="第 1 页" id="aDATvwgRplNJ5EoB7etp">
    <mxGraphModel dx="1673" dy="815" grid="1" gridSize="10" guides="1" tooltips="1" connect="1" arrows="1" fold="1" page="1" pageScale="1" pageWidth="827" pageHeight="1169" math="1" shadow="0">
      <root>
        <mxCell id="0" />
        <mxCell id="1" parent="0" />
        <mxCell id="Egr9qDXFnZyrAonmg9TF-1" value="Reinforcement learning problem" style="whiteSpace=wrap;strokeWidth=2;" vertex="1" parent="1">
          <mxGeometry x="783" y="20" width="112" height="34" as="geometry" />
        </mxCell>
        <mxCell id="Egr9qDXFnZyrAonmg9TF-2" value="Reward attack problem" style="whiteSpace=wrap;strokeWidth=2;" vertex="1" parent="1">
          <mxGeometry x="623" y="108" width="144" height="32" as="geometry" />
        </mxCell>
        <mxCell id="Egr9qDXFnZyrAonmg9TF-4" value="Solution: GRPO algorithm" style="whiteSpace=wrap;strokeWidth=2;" vertex="1" parent="1">
          <mxGeometry x="755" y="220" width="168" height="34" as="geometry" />
        </mxCell>
        <mxCell id="Egr9qDXFnZyrAonmg9TF-5" value="Grouping mechanism" style="whiteSpace=wrap;strokeWidth=2;" vertex="1" parent="1">
          <mxGeometry x="135" y="320" width="168" height="34" as="geometry" />
        </mxCell>
        <mxCell id="Egr9qDXFnZyrAonmg9TF-6" value="Generate multiple sets of outputs for the same question" style="whiteSpace=wrap;strokeWidth=2;" vertex="1" parent="1">
          <mxGeometry x="20" y="436" width="175" height="34" as="geometry" />
        </mxCell>
        <mxCell id="Egr9qDXFnZyrAonmg9TF-8" value="Dynamic baseline" style="whiteSpace=wrap;strokeWidth=2;" vertex="1" parent="1">
          <mxGeometry x="552" y="320" width="169" height="34" as="geometry" />
        </mxCell>
        <mxCell id="Egr9qDXFnZyrAonmg9TF-9" value="No need for value moel" style="whiteSpace=wrap;strokeWidth=2;" vertex="1" parent="1">
          <mxGeometry x="467" y="436" width="144" height="34" as="geometry" />
        </mxCell>
        <mxCell id="Egr9qDXFnZyrAonmg9TF-10" value="Reduce reliance on manual annotation" style="whiteSpace=wrap;strokeWidth=2;" vertex="1" parent="1">
          <mxGeometry x="661" y="444" width="144" height="34" as="geometry" />
        </mxCell>
        <mxCell id="Egr9qDXFnZyrAonmg9TF-11" value="Optimization of relative rewards" style="whiteSpace=wrap;strokeWidth=2;" vertex="1" parent="1">
          <mxGeometry x="936" y="320" width="201" height="34" as="geometry" />
        </mxCell>
        <mxCell id="Egr9qDXFnZyrAonmg9TF-12" value="Avoid maximizing absolute scores" style="whiteSpace=wrap;strokeWidth=2;" vertex="1" parent="1">
          <mxGeometry x="855" y="444" width="161" height="34" as="geometry" />
        </mxCell>
        <mxCell id="Egr9qDXFnZyrAonmg9TF-13" value="Suppress the behavior of rewarding attacks" style="whiteSpace=wrap;strokeWidth=2;" vertex="1" parent="1">
          <mxGeometry x="1066" y="444" width="144" height="34" as="geometry" />
        </mxCell>
        <mxCell id="Egr9qDXFnZyrAonmg9TF-14" value="Cold start problem" style="whiteSpace=wrap;strokeWidth=2;" vertex="1" parent="1">
          <mxGeometry x="1272.5" y="108" width="175" height="36" as="geometry" />
        </mxCell>
        <mxCell id="Egr9qDXFnZyrAonmg9TF-15" value="Solution: reinforcement learning with cold start" style="whiteSpace=wrap;strokeWidth=2;" vertex="1" parent="1">
          <mxGeometry x="1340" y="220" width="208" height="34" as="geometry" />
        </mxCell>
        <mxCell id="Egr9qDXFnZyrAonmg9TF-16" value="Construct a small amount of long-chain CoT data" style="whiteSpace=wrap;strokeWidth=2;" vertex="1" parent="1">
          <mxGeometry x="1190" y="328" width="172" height="34" as="geometry" />
        </mxCell>
        <mxCell id="Egr9qDXFnZyrAonmg9TF-17" value="Fine-tune the initial RL actuator" style="whiteSpace=wrap;strokeWidth=2;" vertex="1" parent="1">
          <mxGeometry x="1424.5" y="328" width="146" height="34" as="geometry" />
        </mxCell>
        <mxCell id="Egr9qDXFnZyrAonmg9TF-18" value="Standard output format:&#xa;Reasoning process → Result summary" style="whiteSpace=wrap;strokeWidth=2;" vertex="1" parent="1">
          <mxGeometry x="1630" y="312" width="160" height="50" as="geometry" />
        </mxCell>
        <mxCell id="Egr9qDXFnZyrAonmg9TF-19" value="Effect:&#xa;robustness enhanced" style="whiteSpace=wrap;strokeWidth=2;" vertex="1" parent="1">
          <mxGeometry x="767" y="552" width="128" height="48" as="geometry" />
        </mxCell>
        <mxCell id="Egr9qDXFnZyrAonmg9TF-20" value="Effect:&#xa;Enhance readability" style="whiteSpace=wrap;strokeWidth=2;" vertex="1" parent="1">
          <mxGeometry x="1295.5" y="552" width="129" height="48" as="geometry" />
        </mxCell>
        <mxCell id="Egr9qDXFnZyrAonmg9TF-22" value="" style="curved=1;startArrow=none;endArrow=block;exitX=0.14700587266156415;exitY=1;entryX=0.4981011284722222;entryY=0;rounded=0;" edge="1" parent="1" source="Egr9qDXFnZyrAonmg9TF-1" target="Egr9qDXFnZyrAonmg9TF-2">
          <mxGeometry relative="1" as="geometry">
            <Array as="points">
              <mxPoint x="742" y="79" />
            </Array>
          </mxGeometry>
        </mxCell>
        <mxCell id="Egr9qDXFnZyrAonmg9TF-24" value="" style="curved=1;startArrow=none;endArrow=block;exitX=-0.0011625744047619048;exitY=0.6673633586333573;entryX=0.5018252418154762;entryY=0;rounded=0;" edge="1" parent="1" source="Egr9qDXFnZyrAonmg9TF-4" target="Egr9qDXFnZyrAonmg9TF-5">
          <mxGeometry relative="1" as="geometry">
            <Array as="points">
              <mxPoint x="219" y="279" />
            </Array>
          </mxGeometry>
        </mxCell>
        <mxCell id="Egr9qDXFnZyrAonmg9TF-25" value="" style="curved=1;startArrow=none;endArrow=block;exitX=0.3067602899861453;exitY=1;entryX=0.5;entryY=0;rounded=0;" edge="1" parent="1" source="Egr9qDXFnZyrAonmg9TF-5" target="Egr9qDXFnZyrAonmg9TF-6">
          <mxGeometry relative="1" as="geometry">
            <Array as="points">
              <mxPoint x="108" y="395" />
            </Array>
          </mxGeometry>
        </mxCell>
        <mxCell id="Egr9qDXFnZyrAonmg9TF-27" value="" style="curved=1;startArrow=none;endArrow=block;exitX=0.010489742772109133;exitY=1;entryX=0.4983820266272189;entryY=0;rounded=0;" edge="1" parent="1" source="Egr9qDXFnZyrAonmg9TF-4" target="Egr9qDXFnZyrAonmg9TF-8">
          <mxGeometry relative="1" as="geometry">
            <Array as="points">
              <mxPoint x="636" y="279" />
            </Array>
          </mxGeometry>
        </mxCell>
        <mxCell id="Egr9qDXFnZyrAonmg9TF-28" value="" style="curved=1;startArrow=none;endArrow=block;exitX=0.33015105335645795;exitY=1;entryX=0.5015733506944444;entryY=0;rounded=0;" edge="1" parent="1" source="Egr9qDXFnZyrAonmg9TF-8" target="Egr9qDXFnZyrAonmg9TF-9">
          <mxGeometry relative="1" as="geometry">
            <Array as="points">
              <mxPoint x="539" y="395" />
            </Array>
          </mxGeometry>
        </mxCell>
        <mxCell id="Egr9qDXFnZyrAonmg9TF-29" value="" style="curved=1;startArrow=none;endArrow=block;exitX=0.66661299989798;exitY=1;entryX=0.5015733506944444;entryY=0;rounded=0;" edge="1" parent="1" source="Egr9qDXFnZyrAonmg9TF-8" target="Egr9qDXFnZyrAonmg9TF-10">
          <mxGeometry relative="1" as="geometry">
            <Array as="points">
              <mxPoint x="733" y="395" />
            </Array>
          </mxGeometry>
        </mxCell>
        <mxCell id="Egr9qDXFnZyrAonmg9TF-30" value="" style="curved=1;startArrow=none;endArrow=block;exitX=0.9760155364229023;exitY=1;entryX=0.5023709577114428;entryY=0;rounded=0;" edge="1" parent="1" source="Egr9qDXFnZyrAonmg9TF-4" target="Egr9qDXFnZyrAonmg9TF-11">
          <mxGeometry relative="1" as="geometry">
            <Array as="points">
              <mxPoint x="1037" y="279" />
            </Array>
          </mxGeometry>
        </mxCell>
        <mxCell id="Egr9qDXFnZyrAonmg9TF-31" value="" style="curved=1;startArrow=none;endArrow=block;exitX=0.3547255639903928;exitY=1;entryX=0.5014072204968945;entryY=0;rounded=0;" edge="1" parent="1" source="Egr9qDXFnZyrAonmg9TF-11" target="Egr9qDXFnZyrAonmg9TF-12">
          <mxGeometry relative="1" as="geometry">
            <Array as="points">
              <mxPoint x="936" y="395" />
            </Array>
          </mxGeometry>
        </mxCell>
        <mxCell id="Egr9qDXFnZyrAonmg9TF-32" value="" style="curved=1;startArrow=none;endArrow=block;exitX=0.6500163514324923;exitY=1;entryX=0.5015733506944444;entryY=0;rounded=0;" edge="1" parent="1" source="Egr9qDXFnZyrAonmg9TF-11" target="Egr9qDXFnZyrAonmg9TF-13">
          <mxGeometry relative="1" as="geometry">
            <Array as="points">
              <mxPoint x="1138" y="395" />
            </Array>
          </mxGeometry>
        </mxCell>
        <mxCell id="Egr9qDXFnZyrAonmg9TF-34" value="" style="curved=1;startArrow=none;endArrow=block;exitX=0.0003662109375;exitY=0.9130446104934452;entryX=0.5002498183139535;entryY=0;rounded=0;" edge="1" parent="1" source="Egr9qDXFnZyrAonmg9TF-15" target="Egr9qDXFnZyrAonmg9TF-16">
          <mxGeometry relative="1" as="geometry">
            <Array as="points">
              <mxPoint x="1310" y="260" />
            </Array>
          </mxGeometry>
        </mxCell>
        <mxCell id="Egr9qDXFnZyrAonmg9TF-35" value="" style="curved=1;startArrow=none;endArrow=block;exitX=0.5;exitY=1;entryX=0.5032373715753424;entryY=0;rounded=0;exitDx=0;exitDy=0;" edge="1" parent="1" source="Egr9qDXFnZyrAonmg9TF-15" target="Egr9qDXFnZyrAonmg9TF-17">
          <mxGeometry relative="1" as="geometry">
            <Array as="points">
              <mxPoint x="1470" y="279" />
            </Array>
          </mxGeometry>
        </mxCell>
        <mxCell id="Egr9qDXFnZyrAonmg9TF-36" value="" style="curved=1;startArrow=none;endArrow=block;exitX=0.6980836749513508;exitY=1;entryX=0.497998046875;entryY=0;rounded=0;" edge="1" parent="1" source="Egr9qDXFnZyrAonmg9TF-15" target="Egr9qDXFnZyrAonmg9TF-18">
          <mxGeometry relative="1" as="geometry">
            <Array as="points">
              <mxPoint x="1590" y="270" />
            </Array>
          </mxGeometry>
        </mxCell>
        <mxCell id="Egr9qDXFnZyrAonmg9TF-37" value="" style="curved=1;startArrow=none;endArrow=block;exitX=0.4981011284722222;exitY=1;entryX=0.2646705817743761;entryY=0;rounded=0;" edge="1" parent="1" source="Egr9qDXFnZyrAonmg9TF-2" target="Egr9qDXFnZyrAonmg9TF-4">
          <mxGeometry relative="1" as="geometry">
            <Array as="points">
              <mxPoint x="742" y="195" />
            </Array>
          </mxGeometry>
        </mxCell>
        <mxCell id="Egr9qDXFnZyrAonmg9TF-39" value="" style="curved=1;startArrow=none;endArrow=block;exitX=0.5222086668719216;exitY=1;entryX=0.5198259178972069;entryY=0;rounded=0;" edge="1" parent="1" source="Egr9qDXFnZyrAonmg9TF-14" target="Egr9qDXFnZyrAonmg9TF-15">
          <mxGeometry relative="1" as="geometry">
            <Array as="points" />
          </mxGeometry>
        </mxCell>
        <mxCell id="Egr9qDXFnZyrAonmg9TF-40" value="" style="curved=1;startArrow=none;endArrow=block;exitX=0.5;exitY=1;entryX=0.49859619140625;entryY=0;rounded=0;exitDx=0;exitDy=0;" edge="1" parent="1" source="Egr9qDXFnZyrAonmg9TF-4" target="Egr9qDXFnZyrAonmg9TF-19">
          <mxGeometry relative="1" as="geometry">
            <Array as="points">
              <mxPoint x="820" y="350" />
            </Array>
          </mxGeometry>
        </mxCell>
        <mxCell id="Egr9qDXFnZyrAonmg9TF-41" value="" style="curved=1;startArrow=none;endArrow=block;exitX=0.327;exitY=1.029;entryX=0.4975169573643411;entryY=0;rounded=0;exitDx=0;exitDy=0;exitPerimeter=0;" edge="1" parent="1" source="Egr9qDXFnZyrAonmg9TF-15" target="Egr9qDXFnZyrAonmg9TF-20">
          <mxGeometry relative="1" as="geometry">
            <Array as="points">
              <mxPoint x="1380" y="370" />
            </Array>
          </mxGeometry>
        </mxCell>
        <mxCell id="Egr9qDXFnZyrAonmg9TF-46" value="dependency on the supervised data " style="whiteSpace=wrap;strokeWidth=2;" vertex="1" parent="1">
          <mxGeometry x="930" y="107" width="164" height="34" as="geometry" />
        </mxCell>
        <mxCell id="Egr9qDXFnZyrAonmg9TF-50" value="Calculate the relative rewards within the group" style="whiteSpace=wrap;strokeWidth=2;" vertex="1" parent="1">
          <mxGeometry x="250" y="436" width="172" height="36" as="geometry" />
        </mxCell>
        <mxCell id="Egr9qDXFnZyrAonmg9TF-66" value="" style="curved=1;startArrow=none;endArrow=block;exitX=0.99755859375;exitY=0.6399044597753069;entryX=0.5012613932291666;entryY=0;rounded=0;" edge="1" parent="1" target="Egr9qDXFnZyrAonmg9TF-46">
          <mxGeometry relative="1" as="geometry">
            <Array as="points">
              <mxPoint x="970" y="70" />
            </Array>
            <mxPoint x="895" y="41.78009192496279" as="sourcePoint" />
          </mxGeometry>
        </mxCell>
        <mxCell id="Egr9qDXFnZyrAonmg9TF-69" value="" style="curved=1;startArrow=none;endArrow=block;exitX=0.6968901936448071;exitY=1;entryX=0.5006586119186046;entryY=0;rounded=0;" edge="1" parent="1" target="Egr9qDXFnZyrAonmg9TF-50">
          <mxGeometry relative="1" as="geometry">
            <Array as="points">
              <mxPoint x="331" y="395" />
            </Array>
            <mxPoint x="252.07755253232767" y="354" as="sourcePoint" />
          </mxGeometry>
        </mxCell>
        <mxCell id="Egr9qDXFnZyrAonmg9TF-73" value="" style="curved=1;startArrow=none;endArrow=block;exitX=0.9760155364229023;exitY=1;entryX=0.5023709577114428;entryY=0;rounded=0;" edge="1" parent="1">
          <mxGeometry relative="1" as="geometry">
            <Array as="points">
              <mxPoint x="1037" y="279" />
            </Array>
            <mxPoint x="918.9706101190477" y="254" as="sourcePoint" />
            <mxPoint x="1036.9765625" y="320" as="targetPoint" />
          </mxGeometry>
        </mxCell>
        <mxCell id="Egr9qDXFnZyrAonmg9TF-81" value="" style="curved=1;startArrow=none;endArrow=block;exitX=0.5012613932291666;exitY=1;entryX=0.9979073660714286;entryY=0.29033848954989594;rounded=0;" edge="1" parent="1" source="Egr9qDXFnZyrAonmg9TF-46">
          <mxGeometry relative="1" as="geometry">
            <Array as="points">
              <mxPoint x="990" y="210" />
            </Array>
            <mxPoint x="923" y="229.8415486081792" as="targetPoint" />
          </mxGeometry>
        </mxCell>
        <mxCell id="Egr9qDXFnZyrAonmg9TF-137" value="" style="endArrow=classic;html=1;rounded=0;entryX=0;entryY=0.5;entryDx=0;entryDy=0;" edge="1" parent="1" target="Egr9qDXFnZyrAonmg9TF-14">
          <mxGeometry width="50" height="50" relative="1" as="geometry">
            <mxPoint x="895" y="40" as="sourcePoint" />
            <mxPoint x="945" y="-10" as="targetPoint" />
            <Array as="points">
              <mxPoint x="1100" y="70" />
            </Array>
          </mxGeometry>
        </mxCell>
      </root>
    </mxGraphModel>
  </diagram>
</mxfile>
